<?xml version="1.0" encoding="UTF-8"?><svg id="icon_outline" xmlns="http://www.w3.org/2000/svg" viewBox="0 0 64 64"><path d="M56.5,20h-.5v-.5c0-3.03-2.47-5.5-5.5-5.5h-.5v-.5c0-3.03-2.47-5.5-5.5-5.5h-.5v-.5c0-3.03-2.47-5.5-5.5-5.5H7.5c-3.03,0-5.5,2.47-5.5,5.5v31c0,3.03,2.47,5.5,5.5,5.5h.5v.5c0,3.03,2.47,5.5,5.5,5.5h.5v.5c0,3.03,2.47,5.5,5.5,5.5h.5v.5c0,3.03,2.47,5.5,5.5,5.5h31c3.03,0,5.5-2.47,5.5-5.5V25.5c0-3.03-2.47-5.5-5.5-5.5Z" style="fill:#1e2b3c;"/><rect x="23" y="23" width="36" height="36" rx="2.5" ry="2.5" style="fill:#fff;"/><path d="M20,25.5c0-3.03,2.47-5.5,5.5-5.5h27.5v-.5c0-1.38-1.12-2.5-2.5-2.5H19.5c-1.38,0-2.5,1.12-2.5,2.5v31c0,1.38,1.12,2.5,2.5,2.5h.5V25.5Z" style="fill:#fff;"/><path d="M14,19.5c0-3.03,2.47-5.5,5.5-5.5h27.5v-.5c0-1.38-1.12-2.5-2.5-2.5H13.5c-1.38,0-2.5,1.12-2.5,2.5v31c0,1.38,1.12,2.5,2.5,2.5h.5V19.5Z" style="fill:#fff;"/><path d="M8,13.5c0-3.03,2.47-5.5,5.5-5.5h27.5v-.5c0-1.38-1.12-2.5-2.5-2.5H7.5c-1.38,0-2.5,1.12-2.5,2.5v31c0,1.38,1.12,2.5,2.5,2.5h.5V13.5Z" style="fill:#fff;"/></svg>