<?xml version="1.0" encoding="UTF-8"?><svg id="icon_outline" xmlns="http://www.w3.org/2000/svg" viewBox="0 0 64 64"><path d="M56.5,18h-2.5v-2.5c0-3.03-2.47-5.5-5.5-5.5h-2.5v-2.5c0-3.03-2.47-5.5-5.5-5.5H7.5c-3.03,0-5.5,2.47-5.5,5.5V40.5c0,3.03,2.47,5.5,5.5,5.5h2.5v2.5c0,3.03,2.47,5.5,5.5,5.5h2.5v2.5c0,3.03,2.47,5.5,5.5,5.5H56.5c3.03,0,5.5-2.47,5.5-5.5V23.5c0-3.03-2.47-5.5-5.5-5.5Z" style="fill:#1e2b3c;"/><path d="M15.5,51c-1.38,0-2.5-1.12-2.5-2.5V15.5c0-1.38,1.12-2.5,2.5-2.5H48.5c1.38,0,2.5,1.12,2.5,2.5v2.5H23.5c-3.03,0-5.5,2.47-5.5,5.5v27.5h-2.5Z" style="fill:#fff;"/><path d="M7.5,43c-1.38,0-2.5-1.12-2.5-2.5V7.5c0-1.38,1.12-2.5,2.5-2.5H40.5c1.38,0,2.5,1.12,2.5,2.5v2.5H15.5c-3.03,0-5.5,2.47-5.5,5.5v27.5h-2.5Z" style="fill:#fff;"/><rect x="21" y="21" width="38" height="38" rx="2.5" ry="2.5" style="fill:#fff;"/></svg>