<svg id="outline" xmlns="http://www.w3.org/2000/svg" viewBox="0 0 16 16"><defs><style>.cls-1{fill:#2d3741;}</style></defs><path class="cls-1" d="M13.5,1.75h-4a.75.75,0,0,0,0,1.5h2.19L7.52,7.43a.74.74,0,0,0,0,1.06.71.71,0,0,0,.53.22.74.74,0,0,0,.53-.22l4.17-4.18V6.5a.75.75,0,0,0,1.5,0v-4A.76.76,0,0,0,13.5,1.75Z"/><path class="cls-1" d="M12.5,9.25a.76.76,0,0,0-.75.75v2.75H3.25V4.25H6a.75.75,0,0,0,0-1.5H2.5a.76.76,0,0,0-.75.75v10a.76.76,0,0,0,.75.75h10a.76.76,0,0,0,.75-.75V10A.76.76,0,0,0,12.5,9.25Z"/></svg>