<svg xmlns="http://www.w3.org/2000/svg" viewBox="0 0 32 32"><defs><style>.cls-1{fill:#0069a5;}</style></defs><title>icon-catalog-dataset-md</title><g id="outline"><path class="cls-1" d="M29.48,21.18V10.68c0-1.53-.93-2.24-2.08-1.57l-9.7,5.6a5,5,0,0,0-2.08,4v10.5c0,1.53.93,2.23,2.08,1.57l9.7-5.6A5,5,0,0,0,29.48,21.18Z"/><path class="cls-1" d="M8.47,8.6,16.38,4V2.82c0-1.53-.93-2.23-2.08-1.57L4.6,6.85a5,5,0,0,0-2.08,4v10.5c0,1.53.93,2.24,2.08,1.57l1.29-.74V13.44A6,6,0,0,1,8.47,8.6Z"/><path class="cls-1" d="M17.2,13.84l7.91-4.57V8.06c0-1.53-.93-2.23-2.08-1.57l-9.7,5.6a5,5,0,0,0-2.08,4v10.5c0,1.53.93,2.23,2.08,1.57l1.29-.74V18.68A6,6,0,0,1,17.2,13.84Z"/><path class="cls-1" d="M12.83,11.22l7.92-4.57V5.44c0-1.53-.93-2.23-2.08-1.57L9,9.47a5,5,0,0,0-2.08,4v10.5c0,1.53.93,2.23,2.08,1.57l1.28-.74V16.06A6,6,0,0,1,12.83,11.22Z"/></g></svg>