<svg xmlns="http://www.w3.org/2000/svg" viewBox="0 0 32 32"><defs><style>.cls-1{fill:#0069a5;}</style></defs><title>icon-catalog-api-md</title><g id="outline"><path class="cls-1" d="M31,17.83V13.57a.73.73,0,0,0-.55-.71L27,12a.75.75,0,0,1-.5-.43,4,4,0,0,0-.21-.47.76.76,0,0,1,0-.69L28,7.58a.73.73,0,0,0-.11-.89l-3-3A.74.74,0,0,0,24,3.56L20.94,5.4a.71.71,0,0,1-.65,0l-.49-.19a.7.7,0,0,1-.46-.5l-.8-3.2A.73.73,0,0,0,17.83,1H13.57a.73.73,0,0,0-.71.55L12,5a.75.75,0,0,1-.43.5,4,4,0,0,0-.47.21.76.76,0,0,1-.69,0L7.58,4a.73.73,0,0,0-.89.11l-3,3A.74.74,0,0,0,3.56,8L5.4,11.06a.71.71,0,0,1,0,.65c-.06.16-.13.32-.19.49a.7.7,0,0,1-.5.46l-3.2.8a.73.73,0,0,0-.55.71v4.26a.73.73,0,0,0,.55.71L5,20a.75.75,0,0,1,.5.43,4,4,0,0,0,.21.47.76.76,0,0,1,0,.69L4,24.42a.73.73,0,0,0,.11.89l3,3a.74.74,0,0,0,.89.11l3.06-1.84a.71.71,0,0,1,.65,0l.49.19a.7.7,0,0,1,.46.5l.8,3.2a.73.73,0,0,0,.71.55h4.26a.73.73,0,0,0,.71-.55L20,27a.75.75,0,0,1,.43-.5,4,4,0,0,0,.47-.21.76.76,0,0,1,.69,0L24.42,28a.73.73,0,0,0,.89-.11l3-3a.74.74,0,0,0,.11-.89L26.6,20.94a.71.71,0,0,1,0-.65c.06-.16.13-.32.19-.49a.7.7,0,0,1,.5-.46l3.2-.8A.73.73,0,0,0,31,17.83ZM21.23,16A5.23,5.23,0,1,1,16,10.77,5.23,5.23,0,0,1,21.23,16Z"/></g></svg>