<svg xmlns="http://www.w3.org/2000/svg" viewBox="0 0 32 32"><defs><style>.cls-1{fill:#0069a5;}</style></defs><title>icon-catalog-concept-md</title><g id="outline"><path class="cls-1" d="M27.5,7A2.6,2.6,0,0,1,25,4.5,2.6,2.6,0,0,1,27.5,2a.5.5,0,0,0,0-1H7.21A3.37,3.37,0,0,0,4,4.5v23A3.5,3.5,0,0,0,7.5,31h20a.5.5,0,0,0,.5-.5V7.5A.5.5,0,0,0,27.5,7ZM15,18.29l-2.15-2.14a.48.48,0,0,0-.7,0L10,18.29V8h5ZM7.21,7A2.37,2.37,0,0,1,5,4.5,2.37,2.37,0,0,1,7.21,2H25.1A3.51,3.51,0,0,0,24,4.5,3.51,3.51,0,0,0,25.1,7Z"/></g></svg>